<svg xmlns="http://www.w3.org/2000/svg" viewBox="0 0 412.29 247.79"><defs><style>.cls-1{fill:#fff;}</style></defs><title>Asset 1</title><g id="Layer_2" data-name="Layer 2"><g id="Layer_1-2" data-name="Layer 1"><path d="M116.24,248H112.7c.17-1.67-.72-2.15-2.22-2.07s-3.11.12-4.66.12H1.87c0-.74,0-1.22,0-1.7q0-15.37,0-30.74,0-27-.05-54.07a6.05,6.05,0,0,0-.48-1.91c-.21-.6-.74-1.15-.76-1.74-.09-2.63,0-5.26,0-7.88q0-25.1,0-50.21c0-.88-.19-1.78,1-2.28.26-.11.26-1.95-.06-2.11-1-.49-.94-1.15-.94-2q0-42.57.08-85.13C.57,4.79-.57,2.66,2,1.9c0,0,0-.1,0-.15C2,.38,3,.6,3.85.6Q25.42.59,47,.6c1.29,0,3-.7,3.56,1.35,0,.09.31.09.43.19,1.79,1.41,3.91,1.2,6,1.24,1.77,0,3.14-.47,3.76-2.28.06-.18.26-.45.39-.45C62.44.66,63.9.41,65,.9c.55.24.7,1.9.66,2.9-.14,4.37-.42,8.73-.64,13.09q-.23,4.54-.45,9.08c-.2,4.31-.37,8.62-.61,12.92-.06,1-.31,2.06-.55,3.53l2.81-1.91,1.35,1.54a9.27,9.27,0,0,0,.32-1.26c.22-2.71.44-5.42.63-8.13.35-5,.7-10.06,1-15.1.26-4.4.46-8.81.67-13.22C70.4.58,70.41.57,74.11.57h71.77c2.24,0,2.92.63,2.91,2.93,0,3.15-.14,6.3-.2,9.45-.08,4.22-.16,8.44-.21,12.65q-.05,4.65,0,9.29c0,.44.28,1.24.45,1.25a7.25,7.25,0,0,0,2.7-.33c.32-.12.45-1,.48-1.58.19-4.2.33-8.4.49-12.6.23-6,.5-12,.7-18,.07-2,1.07-3.09,3-3.09h71.61c1.94,0,2.89,1,2.93,3,.11,4.92.27,9.85.33,14.77.06,5.23,0,10.46,0,15.85a6.23,6.23,0,0,0,2,0c.41-.18.66-1,1-1,1.36,0,1.27-.9,1.26-1.75q-.07-14-.16-27.91c0-1.94.87-2.88,2.77-2.88h73.87c2.15,0,2.91.65,3.05,2.82.37,5.55.65,11.11,1,16.66.26,3.74.6,7.47.95,11.2.1,1.13.8,1.38,1.77.81a5.41,5.41,0,0,1,1.31-.35c0-1.15.05-2.43,0-3.71-.38-8.18-.8-16.35-1.19-24.52a2.49,2.49,0,0,1,2.75-2.9l58.74,0q14.4,0,28.81.06c.54,0,1.49.31,1.55.6.24,1.3,1,1,1.82.84V80.93c-1.65.48-3.31.93-4.95,1.47a1,1,0,0,0-.39.88c.37.85.64,1.81,2,1.61a26.51,26.51,0,0,1,3.35-.09v28.65l-1.49-3.84c-.28.31-.9.68-.89,1q.08,4.44.36,8.88c.08,1.19.84,1.66,2,1.33v55.68c-1.47-.16-1.47.79-1.47,1.84q0,32.89,0,65.78c0,.57,0,1.15,0,1.77h-77c.13-1.82.31-3.5.35-5.19a3.54,3.54,0,0,0-2.92-3.68c-.19,1.86-1.12,2.82-3.18,2.59-1.6-.18-3.24,0-4.87,0-1.44,0-2.27.45-2,2.08a3,3,0,0,1-.23,1.4c-.66,1.76-.26,2.48,1.64,2.63,1.18.09,2.38,0,3.88,0a4.73,4.73,0,0,1-.83.21q-17.37,0-34.74,0c-2.25,0-2.38,0-2.5,2h-4.83c-.14-2-.24-2.05-2.51-2-11.64.05-23.28,0-34.92.1-1.25,0-1.47-.43-1.39-1.63.19-2.83.25-5.68.22-8.52,0-3.37-1.29-4.4-4.63-4.07A2.38,2.38,0,0,0,238,234.5c.12,2.88.27,5.76.38,8.65,0,.89,0,1.79,0,2.77H202.88l0-.58c.4,0,.9-.22,1.19,0a4.42,4.42,0,0,0,3.74.14c-.77-2.47-2.88-2.7-4.66-3.4s-2.26-.3-3.22,1.2a2.78,2.78,0,0,1-1.7.85,1.49,1.49,0,0,1-1.14-.55,25.51,25.51,0,0,1-1.54-2.34,11.65,11.65,0,0,0,1-2,15.89,15.89,0,0,0,.59-3,.86.86,0,0,0-.52-.66.94.94,0,0,0-.84.26c-.85,1.84-3.17,3.2-1.76,5.77a21.93,21.93,0,0,0-2,.94,9.91,9.91,0,0,0-1.25,1,11.27,11.27,0,0,0,1.29.93c.7.37,1.44.66,2.16,1l-.19.43a5.65,5.65,0,0,1-.62.07l-35.72,0q-18.42,0-36.85,0c-.57,0-1.53-.33-1.64-.7a21.24,21.24,0,0,1-1-5c-.1-2.46.2-4.93.17-7.39,0-.59-.62-1.65-1-1.67-2.39-.09-4.83-.24-7,1.3-1.41,1-1.59,1.53-.48,2.82a2.15,2.15,0,0,1,.32,2.89,1.93,1.93,0,0,0,.55,2.7,7.82,7.82,0,0,1,1.1-1.26c.94-.69,1.32-1.35.37-2.35a1.17,1.17,0,0,1,0-1.14c.88-.69,1.87-1.26,3.19-2.1C115.43,239.09,114.82,243.6,116.24,248Zm227-65.79.86,0a10.89,10.89,0,0,0,.26-1.81c-.12-5.9-.28-11.79-.42-17.69,0-2.1.14-2.39,2.22-2.38,5.25,0,10.5.36,15.74.21,6.9-.19,13.8-.72,20.7-1.11,2.33-.13,4.66-.3,7-.44a1.45,1.45,0,0,1,1.69,1.5c0,.48.1,1,.14,1.44q.85,11.38,1.69,22.76c.07,1,.32,1.79,1.78,1.84,0-.57,0-1.07,0-1.58-.19-5.89-.36-11.79-.59-17.68-.11-3-.33-6-.47-9-.06-1.27-.62-1.85-1.93-1.74-2.35.21-4.7.4-7.05.54-3,.17-5.95.29-9,.43,0-1.67-.95-1.94-2.11-2-.8,0-1.61-.18-2.4-.15-1.13,0-1.64-.33-1.67-1.55-.09-3.32-.29-6.64-.48-10-.08-1.37-.25-2.74-.38-4.11l-.43,0c-.13,5.56-.28,11.12-.36,16.68,0,.43.39.88.59,1.29h-1.45c-.15-2.79-.34-5.5-.45-8.22s.1-5.3-1-7.79a.94.94,0,0,0-.47.72c0,3-.14,6.1,0,9.14s-.39,3.84-3.32,4.18a10.78,10.78,0,0,0-2.06.28c-.51.17-1.26.56-1.32.94-.16,1.11-.85,1-1.62,1.07a51.75,51.75,0,0,1-5.72.28c-2.69-.18-5.64,1.52-8.06-1-.15-.16-.51-.14-.77-.15-3.16-.12-6.32-.3-9.48-.31a11.86,11.86,0,0,0-2.82.68l0,.51a19.3,19.3,0,0,0,2.27.35c2.19.09,4.39.05,6.58.19.88.06,2.13-.15,2.41,1.58l-12.74-.63-.92-16.48h-.42c0,2.72,0,5.43,0,8.15s-.23,5.43-.35,8.15h-.37L325.06,148l-.5,0c0,.89,0,1.78,0,2.67q.69,19.2,1.39,38.4c.11,2.89.14,2.9,3.07,2.53.09,0,.16-.13.2-.16,0-6.11,0-12.19,0-18.27l.14,2h.13l.33-2.8,1.69.2c0-1.34-.38-2.72.08-3.73.89-2,1-3.67-.27-5.45-.16-.22,0-.67,0-1.2,2.72.15,5.33.33,7.94.43,1.14,0,1.57.49,1.6,1.66.08,3.16.28,6.32.44,9.48a5.33,5.33,0,0,0,.18,1.09c.33,1.25.72,2.49,1,3.75S343,181,343.2,182.18ZM49.92,131.09c-.4.34-.53.4-.53.47-.45,5.22-.92,10.44-1.3,15.66-.27,3.64-.45,7.28-.6,10.92,0,1.08-.5,1.57-1.54,1.59-1.87,0-3.73,0-5.59.12-1.54.07-3.35-.19-4.54.53a5.64,5.64,0,0,1-3.08.74c-.75,0-1.5,0-2.25-.05-.92,0-2-.12-2,1.25s1.11.92,1.84.94c4.82.14,9.65.24,14.47.37,2.13.06,2.23.19,2.22,2.36,0,1.56-.08,3.12,0,4.66,0,.49.54,1.26.93,1.33.92.17,1,.62,1.13,1.42.06.52.57,1.43.82,1.41,1-.08,2.32.74,2.85-.64a23.08,23.08,0,0,0,1.33-4.87c.1-.71-.38-2.07-.85-2.2-1.1-.3-2.61-.72-3.18,1.11a5.07,5.07,0,0,1,0-.82c.07-2.29.07-2.31,2.3-2.41,3.75-.17,7.5-.35,11.25-.46,2.28-.07,4.56,0,7,0,0,.94,0,1.63,0,2.32,0,4-.07,8,0,12.07,0,.48.35,1.28.69,1.37s1.06-.3,1.43-.66a2.2,2.2,0,0,0,.64-1.36q.28-8.12.44-16.24c0-2.15-.09-2.24-2.29-2.24-5.15,0-10.29,0-15.44-.06-2.76-.05-2.76-.17-2.68-2.87,0-.8.06-1.61.06-2.41q0-9.86,0-19.71h-.51c-1.62,4.21-1.48,8.69-1.86,13.07s-.44,8.92-.64,13.38h-.5Zm53.53,26.22-.57,0a7.77,7.77,0,0,0-.18,1.07c-.11,3.16-.1,6.33-.33,9.48-.72,9.95-.48,19.89-.23,29.85.09,3.47-.1,7-.2,10.43a26.91,26.91,0,0,0-.21,4.28c.17,1.28.73,2.49,2.55,2.53s2.55-.78,2.92-2.51a13.16,13.16,0,0,0,.07-3.68c-.23-3.17-.63-6.32-.81-9.49-.12-2.15,0-4.32,0-6.48a6.25,6.25,0,0,1,0-.64,45.09,45.09,0,0,0,.57-5.38c-.07-6.35-.31-12.71-.42-19.06-.07-3.88,0-7.77,0-11.65l-.66,0c-1.27,7.65-.71,15.45-1.54,23.14-.17-3.65-.06-7.3-.2-10.94S103.72,161,103.45,157.31Zm132,10c0,.57-.1,1.13-.09,1.7.12,5.51.3,11,.36,16.54.09,7.39.1,14.78.13,22.17a5.48,5.48,0,0,1-.08,1.26c-.23,1-.82,2-.7,2.92a3.33,3.33,0,0,0,1.53,2.31,3.62,3.62,0,0,0,2.8-.26c1-.54,1.61-1.92,3.13-1.67.16,0,.57-.33.55-.48a31,31,0,0,0-.69-4.84c-.09-.33-1.35-.34-2.07-.53a9.28,9.28,0,0,1-1.12-.52c.81-.29,1.4-.7,1.64-.55,1.33.83,1.7-.28,1.94-1a7.38,7.38,0,0,0-.63-5.44c-.1-.22-.63-.38-.95-.35-1.45.13-1.12-1-1.27-1.77-.19-.91.5-1,1.2-1.06.41-.06,1.07-.46,1.09-.75.11-1.52.05-3,.05-4.57l-.46-.11-1.24,1.86a23.56,23.56,0,0,1-1-3.15c-.17-1,.11-2.14-.13-3.14-.37-1.58-.4-2.07.32-2.56.28.77.52,1.58.87,2.35a8.32,8.32,0,0,0,.88,1.27,4.86,4.86,0,0,0,.47-1.42q0-10.46,0-20.91a6.13,6.13,0,0,0-.29-1.11c-.26,2-.48,3.53-.67,5.11a45.76,45.76,0,0,0-.47,4.59c0,2.19.12,4.39.15,6.58a1.63,1.63,0,0,1-1.65,1.92l-.38-3.45-1.57.76C236.53,175,237.48,171,235.45,167.34Zm-39-25.84-.33,0c-.11,1.7-.33,3.4-.33,5.1q0,23.29.11,46.59c0,.92,0,1.82,1.34,1.64,1-.14,2.25.09,2.22-1.73-.06-4.23.16-8.46.13-12.69-.08-10.93-.22-21.86-.35-32.79a9.21,9.21,0,0,0-.16-1.15h-.24l-1,14.24-.39,0ZM118,137.33h-.35l-1.77,25.92h-.3l-.82-12a4.7,4.7,0,0,0-.66,2.37c-.17,13.67-.3,27.33-.49,41,0,1.47.88,1.3,1.8,1.3s1.8.18,1.83-1.29c.18-8.67.49-17.34.65-26,.12-6.81.09-13.61.11-20.42C118,144.6,118,141,118,137.33ZM304.93,167.2l-.71.11c0,3.89-.11,7.79,0,11.68.2,5.92.65,11.83.81,17.76.07,2.47-.38,4.94-.54,7.42a13.13,13.13,0,0,0,.07,3.36,2.61,2.61,0,0,0,2.23,2.37,3,3,0,0,0,3.33-3.55c-.16-1.42-1-2.77-1.08-4.18-.31-7.21-.43-14.43-.67-21.65-.17-5.18-.43-10.35-.65-15.52l-.46,0-.94,12C305.29,173.88,306.56,170.3,304.93,167.2Zm-197-70.12c0-4.34-.09-8.33,0-12.31.18-6.58.5-13.15.72-19.73,0-1,.47-1.25,1.37-1.28q4.34-.11,8.67-.33c1.71-.09,3.42-.22,5.12-.44.48-.06.91-.52,1.36-.8-.5-.27-1-.56-1.51-.79a1.64,1.64,0,0,0-.64,0c-4.61,0-9.21,0-13.82.15-2.57.06-5.13.27-7.69.49-.44,0-.84.46-1.26.7a5.09,5.09,0,0,0,1.3.82,8.6,8.6,0,0,0,2.23.25c1,0,1.32.38,1.29,1.35q-.32,10.91-.57,21.83c-.07,3.08,0,6.16,0,9.32.29,0,.66,0,.68-.08.31-1.36.59-2.73.9-4.26C107,93.52,105.5,95.68,107.91,97.09Zm49.1,73c.18,1.85.28,3.39.53,4.92.05.32.63.72,1,.78a3.3,3.3,0,0,0,4-3,10.43,10.43,0,0,1,.54-1.68c.81,2-1.26,4.2.75,6.31.65-2.53,1.33-4.77,1.78-7.05.28-1.45.74-2,2.33-1.64,2.8.57,5.51-.31,8.64-.93A11.19,11.19,0,0,0,175,166.6a2.84,2.84,0,0,1-1.74-2.77c-.08-2.56-.31-5.12-.5-7.68-.06-.8-.21-1.6-.32-2.4l-.58,0L171,165.32h-.46l-1-12.05-.6,0a8.25,8.25,0,0,0-.24,1.18q-.33,5.21-.61,10.42c-.09,1.57-.48,1.85-2,1.35-.34-.11-.66-.25-1-.37,0-.31,0-.53,0-.74.06-2.56-2.11-3.89-3.36-5.66-.51-.73-1.14-1.15-.77-2a23.46,23.46,0,0,1,1.17-2.2c-2-1.52-3.34-1.11-3.82,1.35a12.83,12.83,0,0,0-.14,3c0,.43.33,1.14.61,1.2,1.39.28,1.44,1.36,1.77,2.38a3.29,3.29,0,0,0,1.16,1.69c1.3.83,1.18,2,.85,3.12-.39,1.37-.92,2.7-1.54,4.45Zm238.42-54.19a15.63,15.63,0,0,0-.72,3.58c.33,9.32.67,18.64,1.18,28,.6,11.13,1.36,22.25,2.08,33.38a14.14,14.14,0,0,0,.47,2.08C400.32,180.53,397.74,119.72,395.43,115.93Zm-222.6-19.8c0-2.28,0-4.56,0-6.84.12-8.74.27-17.48.38-26.22,0-1,.35-1.47,1.38-1.51,3.26-.11,6.52-.29,9.78-.37,1.12,0,1.8-.41,2-1.57a2.3,2.3,0,0,0-.53-.14c-6,.1-12.08.19-18.12.35-.4,0-.78.6-1.17.92.37.28.76.82,1.11.79,1.81-.14,2.1.76,2.07,2.33-.09,5.15,0,10.29-.06,15.44,0,3.59-.16,7.18-.22,10.77,0,1.92,0,3.84,0,6.16,1.14-1,1.14-1,1.73-5.24a25.55,25.55,0,0,1,.37,3C171.65,96.15,171.63,96.15,172.83,96.14Zm110.38,60.3-.43,0a5.66,5.66,0,0,0-.09.77c.2,11.72.42,23.44.59,35.16,0,1.45.92,1.23,1.83,1.29,1.15.08,1.45-.41,1.43-1.5-.18-10.22-.3-20.45-.47-30.67,0-1.49-.21-3-.32-4.47h-.53l-.8,9.1Zm-76.79,53.49a4.55,4.55,0,0,0-.64-.52c-1.65-.8-2.81-1.9-2.69-3.95,0-.39-.39-.85-.67-1.22-.93-1.21-2.07-2.22-2.26-3.93s-2-2-3-3c-.1-.09-.75.24-.92.51a5.72,5.72,0,0,0-.41,1.53,8.24,8.24,0,0,1-1.36-.82,6.2,6.2,0,0,0-5.39-1.43c-.55.07-1,.62-1.55.95a8.54,8.54,0,0,0,1,1.28c2,1.77,3.94,3.55,6,5.24a18.51,18.51,0,0,0,2.66,1.56c.6.34,1.22.65,1.8,1,2.14,1.37,4.27,2.76,6.46,4.19Zm125.76-3.24-.29-.15a34.1,34.1,0,0,1-.27-4.31c.15-2.56-.27-5-2.16-6.75a2.89,2.89,0,0,0-2.73-.42,4.23,4.23,0,0,0-1.42,2.85c-.24,3.17-.24,6.37-.27,9.55a2.75,2.75,0,0,0,.49,1.16,13.25,13.25,0,0,0,1.5,2.56,2.78,2.78,0,0,0,1.83.73c.37,0,.85-.53,1.14-.92a11.45,11.45,0,0,0,1-1.74C331.37,208.39,331.77,207.53,332.17,206.68Zm-50.39,8.2c.54,1.78,1.39,3.35,1.42,5,0,2,1.26,2.46,2.57,2.63a36.41,36.41,0,0,0,6.05.06c.34,0,.83-.64.93-1.05a10.13,10.13,0,0,0,0-2.07c0-1.72-.56-2.7-2.53-2.42a1.2,1.2,0,0,1-1.49-1.41c.32-2.36-.76-4.28-2.07-6a3.06,3.06,0,0,0-2.62-.33A47.92,47.92,0,0,0,281.78,214.88ZM118.84,223c-.27-.5-.48-.92-.72-1.32s-.55-.91-.85-1.35c-.6-.87-2.93-1.29-3.37-.49a2.27,2.27,0,0,1-2,1.2c-1.25.16-2.13,1.94-1.22,2.63,1.53,1.15.9,2.59,1,3.89s.4,2.43,1.58,2.68a33,33,0,0,0,5.41.46c.21,0,.54-.36.64-.62a17.11,17.11,0,0,0,1-7.93Zm-1.19-98.44.52,0a7.6,7.6,0,0,0,.22-1.46c-.06-1.49-.3-3-.28-4.47.11-6.37.32-12.74.45-19.11,0-2.52-.36-2.78-3.19-1.9,0,3,0,6.18,0,9.33-.07,4.23-.21,8.46-.31,12.68,0,1.27,0,2.54,0,4l1.51-1.28Zm78.18-2.23.34,0c.12-.21.23-.42.37-.62.55-.8.94-1.89,1.7-2.31s1-.73.81-1.54a6.62,6.62,0,0,1-.1-1.6c0-6.79,0-13.59.07-20.38,0-1.09-.22-1.69-1.48-1.71s-1.59.46-1.56,1.61q.09,3.69,0,7.38c-.08,5.28-.23,10.57-.31,15.85C195.67,120.1,195.78,121.19,195.84,122.28Zm-77.37,90.56.4-.14a47.3,47.3,0,0,0-2.17-6c-.21-.42-2.35-.53-2.73-.07a8.3,8.3,0,0,0-1.68,3.89,17.75,17.75,0,0,0,.06,5.53,3.2,3.2,0,0,0,2.05,1.92,2.42,2.42,0,0,0,2.82-.7C118.45,215.88,118.4,214.42,118.47,212.85ZM16.68,159.21l.58,0a42.83,42.83,0,0,0,.83-4.55q.52-6.81.83-13.63c.13-2.78.11-5.57.05-8.36a8.36,8.36,0,0,0-.64-2.15l-.62.11c-.07.5-.17,1-.21,1.49-.31,4.49-.57,9-.92,13.46-.14,1.78-.63,3.55-.63,5.32,0,2.28.32,4.55.51,6.83C16.52,158.24,16.61,158.73,16.68,159.21Zm23.09-33.88-.66,0c-.12,1.18-.23,2.36-.36,3.54-.45,4-.91,7.94-1.35,11.91-.36,3.23-.71,6.47-1,9.7-.08.82.16,1.47,1.17,1.57s1.52-.29,1.56-1.31c0-.53.16-1.06.18-1.59q.33-11.13.62-22.27A13.9,13.9,0,0,0,39.77,125.33ZM113.82,78.7c.51.89,1.1,1.43,1.09,2,0,1.39.56,1.85,1.83,1.74,3.4-.29,6.8-.57,10.2-.91.3,0,.55-.5.82-.76-.33-.27-.65-.75-1-.78-1.14-.1-2.3,0-3.45,0a12.45,12.45,0,0,1,2.93-.56,5.42,5.42,0,0,0,1.4-.68c-.47-.32-.93-.89-1.42-.91a61.06,61.06,0,0,0-6.74,0C117.61,77.94,115.76,78.38,113.82,78.7ZM238.68,225.79c.11,1.52.13,2.6.28,3.65.26,1.75,1.43,2.7,3,2.06a3.57,3.57,0,0,0,1.89-2.42,37.65,37.65,0,0,0,0-6.53c-.06-1-.35-2.1-1.73-2.1s-2.75-.1-2.93,1.84C239,223.61,238.81,224.92,238.68,225.79ZM149.79,119.68l-.89,0a46,46,0,0,1-1.17-5.6c-.18-2,.09-4.09,0-6.14a5.11,5.11,0,0,0-.76-1.72,5.27,5.27,0,0,0-.73,1.64c-.21,3.15-.33,6.3-.45,9.45a13.93,13.93,0,0,0,0,2.4c.25,1.85,2.08,3.93,3.34,3.91s3.31-2.14,3.27-3.33a2.73,2.73,0,0,0-.34-.85,14,14,0,0,1-.77-1.87,9.63,9.63,0,0,1-.14-1.76l-.26,0Zm8,2.88h.42a16.27,16.27,0,0,0,.28-2.54c-.1-2.44-.26-4.88-.5-7.31-.13-1.28-.52-2.53-.7-3.81a4.85,4.85,0,0,1,.24-1.47c.17-.89.35-1.79.53-2.75l-2.79.17v17.45h.28l1-2.35Zm7.37,30.77c.19-.9.9-2.54.54-2.83-1.51-1.18-2.56-2.75-3.92-4-1.64-1.52-3.84-2.42-5.5-3.91a2,2,0,0,0-2.7-.23c-1,.57-.81,1.52-.33,2.39,1.2,2.18,3.47,2.84,5.56,3.26a2.71,2.71,0,0,1,2.4,2,4.07,4.07,0,0,0,1.17,1.74A19.61,19.61,0,0,0,165.21,153.32Zm63.17,64.92c0-.63,0-.89,0-1.16,0-3.77-.07-3.8-3.74-4.15-3.37-.32-3.33-.31-3.9,2.86-.22,1.2,0,1.66,1.32,1.88,1.1.18,2.74.17,2.88,1.9.1,1.25.53,1.76,1.87,1.76s1.51-.82,1.52-1.85C228.33,219,228.37,218.42,228.38,218.25Zm-30.75-4.4v-.08a15.76,15.76,0,0,0-2.22.25c-.33.08-.83.54-.81.77a61,61,0,0,0,1,6.14c.21.92,3.37,1.5,3.72.73a24.33,24.33,0,0,0,1.85-5.18c.34-1.74-.54-2.51-2.36-2.64C198.38,213.82,198,213.84,197.63,213.84ZM97.26,232.67l.25-.38c2.79.37,4.22-2.3,6.56-3,.34-.1.34-1.19.61-1.78.14-.31.54-.48.75-.77a13.47,13.47,0,0,0,.72-1.22,5.1,5.1,0,0,0-1.45-.68,2.58,2.58,0,0,0-1.35.39c-2.23,1.13-4.41,2.36-6.67,3.43-1.19.57-1.68,1.48-1.25,2.56C95.69,231.86,96.63,232.2,97.26,232.67ZM301.71,58.18l-1.18-.86a5.33,5.33,0,0,0-.39,1.44c0,1,.22,1.9.27,2.86.14,2.72.28,5.44.36,8.17,0,1.21.8,1.2,1.65,1.17s1.33-.39,1.2-1.42a20.85,20.85,0,0,1-.08-3.68c.08-1.42,0-2.61-2.09-2.51.21-.6.25-1.3.52-1.4,1.69-.67,1.14-2.09,1.19-3.28,0-.35-.29-.71-.46-1.07Zm-105,1V59c-2.4.11-4.8.18-7.2.37a4.84,4.84,0,0,0-1.55.75c.48.3,1,.86,1.43.86q6.55,0,13.11-.15c.48,0,.94-.62,1.41-.95-.47-.26-.94-.72-1.43-.74C200.58,59.08,198.66,59.13,196.73,59.13ZM54,77.6c-.47-2.9-.86-5.61,1-7.48a9.65,9.65,0,0,1-.76-2.31c0-1.12.65-2.74.14-3.26S52.2,64,51,64c-.54,0-1.08.51-1.61.8l.22.49a6.53,6.53,0,0,0,1.22.17c1.33-.06,1.77.48,1.66,1.83-.24,3-.35,6.08-.47,9.12,0,.44.11,1.11.39,1.27S53.39,77.66,54,77.6ZM207.1,211.46l-.16.33a8.31,8.31,0,0,0,1.11.78c1.53.74,3.09,1.4,4.61,2.17a2.36,2.36,0,1,0,2.64-3.91,3.76,3.76,0,0,0-4.86.18,1.61,1.61,0,0,1-1,.42C208.68,211.5,207.89,211.46,207.1,211.46Zm77.13-115.9c-1.53-.45-2.28,0-2.39,1.39-.13,1.59-.29,3.18-.35,4.77,0,.69-.21,1.83.89,1.64a2.58,2.58,0,0,0,1.77-1.63A56.16,56.16,0,0,0,284.23,95.56Zm106.45-12V83.4c-1.54.17-3.1.27-4.62.55-.46.08-.82.67-1.23,1,.49.25,1,.74,1.46.71,2.34-.15,4.66-.55,7,.38.32.13,1-.59,1.49-.91-.39-.52-.69-1.36-1.18-1.5A11.25,11.25,0,0,0,390.68,83.57Zm-33-26.69,0,.51,3.48,1c3,.88,4.18-.15,3.6-3.18a1.61,1.61,0,0,0-1.1-1c-2-.3-.91,1.4-1.36,2.29ZM147,171c-2.85-.37-4.43,1.46-3.61,4a1.1,1.1,0,0,0,.62.6,2.06,2.06,0,0,0,3-1.8A20.5,20.5,0,0,0,147,171ZM301,77.87c1-.69,2.1-1,2.25-1.58a6.06,6.06,0,0,0,0-3.48c-.27-.73-2.15-.15-2.21.71C301,74.91,301,76.32,301,77.87ZM139.52,153.4a3.74,3.74,0,0,0-.79.58c-1,1.35-2.63,2.42-2.17,4.47a1.4,1.4,0,0,0,.54.85c.17.1.6-.1.82-.28A5,5,0,0,0,139.52,153.4Zm-77-28a3.06,3.06,0,0,0,1.8-3.45c-.36-.79-.84-1-1.62-.47a3.08,3.08,0,0,1-1.27.58c-1.28.18-1.38,1-.84,1.81A8.1,8.1,0,0,0,62.49,125.43ZM159.86,80.8c-.7-1.23,1.69-2.17.14-3.13a3.52,3.52,0,0,0-3.05,0c-1.69,1,.85,1.94.1,3.12ZM284,107.68l.51,0c-.24-.88.64-2.4-1.37-2.26-.44,0-1.21.41-1.22.66,0,1.2-.57,2.55.49,3.61ZM19,95.36c.5-.36,1.27-.62,1.43-1.09.23-.7-1.56-2.68-2.16-2.66-.94,0-1.24.61-1.06,1.4S17.12,95.37,19,95.36ZM5.24,236.2c-.18,1,.22,1.48,1.38,1.52,1.47.05,1.46-.88,1.52-1.88s-.42-1.42-1.44-1.43C5.45,234.39,5.11,235,5.24,236.2Zm277.41,3.45,2.58-4.74-.66-.58A14.57,14.57,0,0,0,283,235.6c-.35.37-.47,1-.83,1.32C281.24,237.83,281.51,238.57,282.65,239.65Zm6.91-.15a4,4,0,0,0-1.6-4c-.36-.3-1-.28-1.5-.4.07.58-.06,1.34.26,1.72A30.82,30.82,0,0,0,289.55,239.5ZM46.86,179l.46.38c.42-.32,1.2-.65,1.2-1a22.3,22.3,0,0,0-.49-3.3c-.39.24-1.08.44-1.12.73A24.2,24.2,0,0,0,46.86,179Zm-6.28-56.57c-.14-1.22-.2-2-.35-2.8,0-.24-.38-.58-.58-.58a.87.87,0,0,0-.61.56,7.56,7.56,0,0,0-.35,2.36c0,.55.55,1.05.84,1.58Zm145.5,75c1.08-.32,1.74-.46,2.36-.71.33-.13.87-.55.84-.63-.19-.43-.48-1.05-.83-1.11a2.82,2.82,0,0,0-2.08.22C186,195.64,186.18,196.61,186.09,197.52Zm96.84-87.18a6.83,6.83,0,0,0-1.06,1.8c-.07.36.39.81.61,1.22l1.87-1.77ZM84.14,235.52a8.56,8.56,0,0,0-1.28,1.6c-.05.12.73.9,1,.83a7.56,7.56,0,0,0,1.77-1ZM301.45,83.61l.43,0,.48-4.46-.73-.06C301,80.58,301.58,82.13,301.45,83.61Zm64.42,1.3,1.32-1.32c-.4-.35-.78-.94-1.21-1s-.83.53-1.25.83Zm-5.09-37.53.39-.09a9.66,9.66,0,0,0-.54-2.23c-.1-.2-1,0-1.93,0ZM283,94.83l1.1-.86c-.37-.27-.73-.75-1.11-.76s-.81.43-1.21.67Zm50.06,130.84c-.56-.49-.86-1-1.2-1s-.6.5-.9.78c.29.3.54.74.89.86S332.49,226,333.08,225.67ZM164.31,158.54l-.92.18.5,2.65.72-.13Z" transform="translate(-0.06 -0.18)"/><path class="cls-1" d="M412.36,2.07c-.78.11-1.58.46-1.82-.84-.05-.3-1-.6-1.55-.6Q394.58.56,380.18.57l-58.74,0a2.49,2.49,0,0,0-2.75,2.9c.39,8.17.8,16.35,1.19,24.52.06,1.27,0,2.56,0,3.71a5.41,5.41,0,0,0-1.31.35c-1,.58-1.67.32-1.77-.81-.35-3.73-.69-7.46-.95-11.2-.38-5.55-.66-11.11-1-16.66-.14-2.17-.91-2.82-3.05-2.82H237.91c-1.89,0-2.78.94-2.77,2.88q.09,14,.16,27.91c0,.85.1,1.76-1.26,1.75-.32,0-.58.85-1,1a6.23,6.23,0,0,1-2,0c0-5.4,0-10.63,0-15.85-.05-4.92-.22-9.85-.33-14.77,0-2-1-3-2.93-3H156.2c-1.93,0-2.93,1.14-3,3.09-.2,6-.47,12-.7,18-.16,4.2-.3,8.4-.49,12.6,0,.56-.16,1.46-.48,1.58a7.25,7.25,0,0,1-2.7.33c-.17,0-.44-.81-.45-1.25q-.06-4.65,0-9.29c0-4.22.13-8.44.21-12.65.06-3.15.18-6.3.2-9.45,0-2.3-.66-2.93-2.91-2.93H74.11c-3.69,0-3.71,0-3.89,3.78-.21,4.41-.41,8.82-.67,13.22-.3,5-.65,10.07-1,15.1-.19,2.71-.4,5.42-.63,8.13a9.27,9.27,0,0,1-.32,1.26l-1.35-1.54-2.81,1.91c.23-1.47.49-2.49.55-3.53.24-4.31.41-8.62.61-12.92q.21-4.54.45-9.08c.22-4.36.5-8.73.64-13.09,0-1-.11-2.67-.66-2.9C63.9.41,62.44.66,61.11.65c-.13,0-.33.27-.39.45-.63,1.81-2,2.31-3.76,2.28-2.09,0-4.2.17-6-1.24-.12-.1-.4-.09-.43-.19C50-.1,48.28.6,47,.6Q25.42.56,3.85.6C3,.6,2,.38,2,1.75c0,.05,0,.14,0,.15C-.57,2.66.57,4.79.57,6.29Q.45,48.86.49,91.42c0,.82,0,1.48.94,2,.32.16.32,2,.06,2.11-1.19.5-1,1.4-1,2.28q0,25.1,0,50.21c0,2.63,0,5.26,0,7.88,0,.59.54,1.14.76,1.74a6.05,6.05,0,0,1,.48,1.91q.05,27,.05,54.07,0,15.37,0,30.74c0,.48,0,1,0,1.7H105.82q2.33,0,4.66-.12c1.5-.08,2.39.41,2.22,2.07H.06V.18H412.36Z" transform="translate(-0.06 -0.18)"/><path class="cls-1" d="M116.24,248c-1.42-4.37-.82-8.88-.71-13.87-1.32.85-2.31,1.41-3.19,2.1a1.17,1.17,0,0,0,0,1.14c.95,1,.58,1.66-.37,2.35a7.82,7.82,0,0,0-1.1,1.26,1.93,1.93,0,0,1-.55-2.7,2.15,2.15,0,0,0-.32-2.89c-1.11-1.29-.93-1.81.48-2.82,2.13-1.53,4.57-1.39,7-1.3.37,0,1,1.08,1,1.67,0,2.46-.26,4.93-.17,7.39a21.24,21.24,0,0,0,1,5c.11.37,1.07.7,1.64.7q18.42.06,36.85,0l35.72,0a5.65,5.65,0,0,0,.62-.07l.19-.43c-.72-.32-1.46-.61-2.16-1a11.27,11.27,0,0,1-1.29-.93,9.91,9.91,0,0,1,1.25-1,21.93,21.93,0,0,1,2-.94c-1.41-2.56.91-3.93,1.76-5.77a.94.94,0,0,1,.84-.26.86.86,0,0,1,.52.66,15.89,15.89,0,0,1-.59,3,11.65,11.65,0,0,1-1,2,25.51,25.51,0,0,0,1.54,2.34,1.49,1.49,0,0,0,1.14.55,2.78,2.78,0,0,0,1.7-.85c1-1.5,1.58-1.84,3.22-1.2s3.89.92,4.66,3.4a4.42,4.42,0,0,1-3.74-.14c-.29-.17-.79,0-1.19,0l0,.58h35.55c0-1,0-1.88,0-2.77-.12-2.88-.27-5.76-.38-8.65a2.38,2.38,0,0,1,2.35-2.69c3.34-.33,4.59.71,4.63,4.07,0,2.84,0,5.69-.22,8.52-.08,1.2.13,1.64,1.39,1.63,11.64-.05,23.28,0,34.92-.1,2.27,0,2.37,0,2.51,2Zm125.43-12.48-.65,0a6.45,6.45,0,0,0-.38,1.6q.08,3.92.3,7.84c0,.36.43.71.66,1.06.25-.33.72-.65.72-1,0-2.51,0-5-.09-7.53A9,9,0,0,0,241.68,235.49Z" transform="translate(-0.06 -0.18)"/><path class="cls-1" d="M288.44,248c.12-2,.25-2.05,2.5-2q17.37,0,34.74,0a4.73,4.73,0,0,0,.83-.21c-1.5,0-2.69.07-3.88,0-1.9-.15-2.3-.87-1.64-2.63a3,3,0,0,0,.23-1.4c-.24-1.63.59-2.1,2-2.08,1.62,0,3.26-.15,4.87,0,2.06.23,3-.73,3.18-2.59a3.54,3.54,0,0,1,2.92,3.68c0,1.69-.22,3.37-.35,5.19h77c0-.63,0-1.2,0-1.77q0-32.89,0-65.78c0-1.05,0-2,1.47-1.84V248Zm37.93-6.16c2.2-.46,2.51.94,3.07,2.22.25.57,1,.94,1.67,1.58.53-3.38.31-3.84-1.15-4.83S327.64,240.58,326.37,241.82Z" transform="translate(-0.06 -0.18)"/><path class="cls-1" d="M412.36,120.84c-1.18.32-1.94-.14-2-1.33q-.28-4.43-.36-8.88c0-.35.61-.72.89-1l1.49,3.84Z" transform="translate(-0.06 -0.18)"/><path class="cls-1" d="M412.36,84.79a26.51,26.51,0,0,0-3.35.09c-1.34.2-1.62-.76-2-1.61a1,1,0,0,1,.39-.88c1.63-.54,3.29-1,4.95-1.47Z" transform="translate(-0.06 -0.18)"/><path class="cls-1" d="M343.2,182.18c-.23-1.17-.42-2.34-.7-3.49s-.69-2.5-1-3.75a5.33,5.33,0,0,1-.18-1.09c-.16-3.16-.36-6.32-.44-9.48,0-1.17-.47-1.61-1.6-1.66-2.61-.1-5.22-.28-7.94-.43,0,.53-.14,1,0,1.2,1.31,1.78,1.15,3.48.27,5.45-.46,1-.08,2.4-.08,3.73l-1.69-.2-.33,2.8h-.13l-.14-2c0,6.08,0,12.15,0,18.27,0,0-.11.15-.2.16-2.94.37-3,.36-3.07-2.53q-.71-19.2-1.39-38.4c0-.89,0-1.78,0-2.67l.5,0,1.39,11.41h.37c.12-2.72.29-5.43.35-8.15s0-5.43,0-8.15h.42l.92,16.48,12.74.63c-.28-1.73-1.53-1.52-2.41-1.58-2.19-.14-4.39-.1-6.58-.19a19.3,19.3,0,0,1-2.27-.35l0-.51a11.86,11.86,0,0,1,2.82-.68c3.16,0,6.32.19,9.48.31.26,0,.63,0,.77.15,2.41,2.51,5.37.82,8.06,1a51.75,51.75,0,0,0,5.72-.28c.77,0,1.46,0,1.62-1.07.06-.38.81-.78,1.32-.94a10.78,10.78,0,0,1,2.06-.28c2.92-.35,3.46-1.18,3.32-4.18s0-6.09,0-9.14a.94.94,0,0,1,.47-.72c1.13,2.5.92,5.17,1,7.79s.29,5.44.45,8.22h1.45c-.2-.41-.6-.85-.59-1.29.09-5.56.23-11.12.36-16.68l.43,0c.13,1.37.3,2.74.38,4.11.19,3.32.38,6.64.48,10,0,1.22.54,1.59,1.67,1.55.8,0,1.6.1,2.4.15,1.16.07,2.15.34,2.11,2,3.1-.14,6.07-.26,9-.43,2.35-.14,4.7-.33,7.05-.54,1.3-.12,1.87.46,1.93,1.74.14,3,.36,6,.47,9,.22,5.89.4,11.79.59,17.68,0,.51,0,1,0,1.58-1.47-.05-1.71-.85-1.78-1.84q-.84-11.38-1.69-22.76c0-.48-.1-1-.14-1.44a1.45,1.45,0,0,0-1.69-1.5c-2.33.14-4.66.3-7,.44-6.9.39-13.79.92-20.7,1.11-5.24.15-10.5-.18-15.74-.21-2.08,0-2.27.28-2.22,2.38.14,5.9.3,11.79.42,17.69a10.89,10.89,0,0,1-.26,1.81ZM330,164.75l-.38,0v4.63l.38,0Z" transform="translate(-0.06 -0.18)"/><path class="cls-1" d="M49.92,131.09v30.05h.5c.2-4.46.26-8.94.64-13.38s.23-8.87,1.86-13.07h.51q0,9.86,0,19.71c0,.8,0,1.61-.06,2.41-.08,2.7-.08,2.82,2.68,2.87,5.15.1,10.29,0,15.44.06,2.2,0,2.33.09,2.29,2.24q-.16,8.12-.44,16.24a2.2,2.2,0,0,1-.64,1.36c-.37.36-1,.76-1.43.66s-.69-.88-.69-1.37c0-4,0-8,0-12.07,0-.69,0-1.38,0-2.32-2.4,0-4.68-.05-7,0-3.75.11-7.5.29-11.25.46-2.23.1-2.23.12-2.3,2.41a5.07,5.07,0,0,0,0,.82c.57-1.83,2.08-1.42,3.18-1.11.47.13,1,1.49.85,2.2a23.08,23.08,0,0,1-1.33,4.87c-.53,1.38-1.88.57-2.85.64-.25,0-.76-.89-.82-1.41-.08-.8-.2-1.24-1.13-1.42-.39-.07-.89-.85-.93-1.33-.12-1.55,0-3.11,0-4.66,0-2.18-.09-2.3-2.22-2.36-4.82-.13-9.65-.23-14.47-.37-.73,0-1.8.32-1.84-.94s1-1.26,2-1.25c.75,0,1.5.07,2.25.05a5.64,5.64,0,0,0,3.08-.74c1.19-.72,3-.45,4.54-.53,1.86-.09,3.73-.09,5.59-.12,1,0,1.5-.51,1.54-1.59.16-3.64.33-7.28.6-10.92.39-5.22.86-10.44,1.3-15.66C49.4,131.49,49.53,131.43,49.92,131.09Z" transform="translate(-0.06 -0.18)"/><path class="cls-1" d="M103.45,157.31c.27,3.65.65,7.3.79,11s0,7.29.2,10.94c.84-7.69.27-15.49,1.54-23.14l.66,0c0,3.88-.05,7.77,0,11.65.11,6.35.35,12.71.42,19.06a45.09,45.09,0,0,1-.57,5.38,6.25,6.25,0,0,0,0,.64c0,2.16-.14,4.32,0,6.48.18,3.17.57,6.32.81,9.49a13.16,13.16,0,0,1-.07,3.68c-.37,1.73-1.12,2.55-2.92,2.51s-2.37-1.25-2.55-2.53a26.91,26.91,0,0,1,.21-4.28c.1-3.48.29-7,.2-10.43-.25-10-.49-19.9.23-29.85.23-3.15.22-6.32.33-9.48a7.77,7.77,0,0,1,.18-1.07Z" transform="translate(-0.06 -0.18)"/><path class="cls-1" d="M235.45,167.34c2,3.67,1.08,7.68,1.69,11.67l1.57-.76.38,3.45a1.63,1.63,0,0,0,1.65-1.92c0-2.19-.19-4.39-.15-6.58a45.76,45.76,0,0,1,.47-4.59c.19-1.57.41-3.14.67-5.11a6.13,6.13,0,0,1,.29,1.11q0,10.46,0,20.91a4.86,4.86,0,0,1-.47,1.42,8.32,8.32,0,0,1-.88-1.27c-.35-.77-.59-1.59-.87-2.35-.72.5-.69,1-.32,2.56.23,1,0,2.11.13,3.14a23.56,23.56,0,0,0,1,3.15l1.24-1.86.46.11c0,1.52.06,3.05-.05,4.57,0,.29-.68.69-1.09.75-.7.1-1.39.15-1.2,1.06.15.72-.18,1.89,1.27,1.77.31,0,.84.13.95.35a7.38,7.38,0,0,1,.63,5.44c-.24.75-.61,1.86-1.94,1-.24-.15-.83.26-1.64.55a9.28,9.28,0,0,0,1.12.52c.72.19,2,.19,2.07.53a31,31,0,0,1,.69,4.84c0,.15-.39.51-.55.48-1.52-.26-2.09,1.12-3.13,1.67a3.62,3.62,0,0,1-2.8.26,3.33,3.33,0,0,1-1.53-2.31c-.12-.93.47-1.94.7-2.92a5.48,5.48,0,0,0,.08-1.26c0-7.39,0-14.78-.13-22.17-.07-5.52-.24-11-.36-16.54C235.35,168.47,235.42,167.9,235.45,167.34Z" transform="translate(-0.06 -0.18)"/><path class="cls-1" d="M196.44,141.5l1,19.17.39,0,1-14.24h.24a9.21,9.21,0,0,1,.16,1.15c.13,10.93.28,21.86.35,32.79,0,4.23-.2,8.46-.13,12.69,0,1.83-1.18,1.59-2.22,1.73-1.29.18-1.34-.72-1.34-1.64q-.06-23.29-.11-46.59c0-1.7.21-3.4.33-5.1Z" transform="translate(-0.06 -0.18)"/><path class="cls-1" d="M118,137.33c0,3.63,0,7.26,0,10.9,0,6.81,0,13.62-.11,20.42-.15,8.67-.47,17.34-.65,26,0,1.47-.91,1.28-1.83,1.29s-1.82.17-1.8-1.3c.18-13.67.32-27.33.49-41a4.7,4.7,0,0,1,.66-2.37l.82,12h.3l1.77-25.92Z" transform="translate(-0.06 -0.18)"/><path class="cls-1" d="M304.93,167.2c1.63,3.1.36,6.68,1.42,9.76l.94-12,.46,0c.22,5.17.48,10.35.65,15.52.24,7.22.36,14.43.67,21.65.06,1.4.92,2.76,1.08,4.18a3,3,0,0,1-3.33,3.55,2.61,2.61,0,0,1-2.23-2.37,13.13,13.13,0,0,1-.07-3.36c.15-2.48.6-5,.54-7.42-.16-5.92-.61-11.83-.81-17.76-.13-3.89,0-7.79,0-11.68Z" transform="translate(-0.06 -0.18)"/><path class="cls-1" d="M107.91,97.09c-2.41-1.41-.88-3.56-1.85-5.12-.31,1.53-.59,2.9-.9,4.26,0,.07-.38.05-.68.08,0-3.16-.05-6.24,0-9.32q.23-10.92.57-21.83c0-1-.33-1.36-1.29-1.35a8.6,8.6,0,0,1-2.23-.25,5.09,5.09,0,0,1-1.3-.82c.42-.24.82-.66,1.26-.7,2.56-.22,5.13-.43,7.69-.49,4.6-.11,9.21-.1,13.82-.15a1.64,1.64,0,0,1,.64,0c.52.23,1,.53,1.51.79-.45.28-.88.73-1.36.8-1.7.22-3.41.35-5.12.44q-4.33.22-8.67.33c-.91,0-1.34.27-1.37,1.28-.22,6.58-.54,13.15-.72,19.73C107.82,88.76,107.91,92.74,107.91,97.09Z" transform="translate(-0.06 -0.18)"/><path class="cls-1" d="M157,170.12l4,2.31c.61-1.75,1.15-3.08,1.54-4.45.32-1.15.44-2.29-.85-3.12a3.29,3.29,0,0,1-1.16-1.69c-.33-1-.38-2.1-1.77-2.38-.28-.06-.59-.77-.61-1.2a12.83,12.83,0,0,1,.14-3c.48-2.46,1.82-2.87,3.82-1.35a23.46,23.46,0,0,0-1.17,2.2c-.37.9.25,1.32.77,2,1.25,1.77,3.43,3.09,3.36,5.66,0,.21,0,.42,0,.74.32.12.65.26,1,.37,1.53.51,1.93.23,2-1.35q.29-5.21.61-10.42a8.25,8.25,0,0,1,.24-1.18l.6,0,1,12.05H171l.93-11.56.58,0c.11.8.26,1.6.32,2.4.19,2.56.42,5.12.5,7.68A2.84,2.84,0,0,0,175,166.6a11.19,11.19,0,0,1,1.57,1.21c-3.13.63-5.83,1.5-8.64.93-1.6-.32-2,.18-2.33,1.64-.45,2.28-1.13,4.52-1.78,7.05-2-2.1.06-4.28-.75-6.31a10.43,10.43,0,0,0-.54,1.68,3.3,3.3,0,0,1-4,3c-.38-.06-1-.47-1-.78C157.29,173.52,157.19,172,157,170.12Z" transform="translate(-0.06 -0.18)"/><path class="cls-1" d="M395.43,115.93c2.31,3.79,4.89,64.6,3,67a14.14,14.14,0,0,1-.47-2.08c-.71-11.12-1.47-22.25-2.08-33.38-.5-9.31-.85-18.63-1.18-28A15.63,15.63,0,0,1,395.43,115.93Z" transform="translate(-0.06 -0.18)"/><path class="cls-1" d="M172.83,96.14c-1.21,0-1.18,0-1.28-2.12a25.55,25.55,0,0,0-.37-3c-.59,4.23-.59,4.23-1.73,5.24,0-2.31,0-4.24,0-6.16.06-3.59.19-7.18.22-10.77,0-5.15,0-10.3.06-15.44,0-1.57-.27-2.47-2.07-2.33-.35,0-.74-.51-1.11-.79.39-.32.77-.91,1.17-.92,6-.16,12.08-.25,18.12-.35a2.3,2.3,0,0,1,.53.14c-.21,1.16-.9,1.54-2,1.57-3.26.08-6.52.26-9.78.37-1,0-1.36.49-1.38,1.51-.1,8.74-.25,17.48-.38,26.22C172.81,91.58,172.83,93.86,172.83,96.14Z" transform="translate(-0.06 -0.18)"/><path class="cls-1" d="M283.21,156.44l1.22,9.71.8-9.1h.53c.11,1.49.3,3,.32,4.47.17,10.22.29,20.45.47,30.67,0,1.09-.28,1.58-1.43,1.5-.91-.06-1.81.16-1.83-1.29-.17-11.72-.39-23.44-.59-35.16a5.66,5.66,0,0,1,.09-.77Z" transform="translate(-0.06 -0.18)"/><path class="cls-1" d="M206.42,209.93l-1,1.44c-2.19-1.42-4.32-2.81-6.46-4.19-.58-.37-1.2-.68-1.8-1a18.51,18.51,0,0,1-2.66-1.56c-2-1.69-4-3.46-6-5.24a8.54,8.54,0,0,1-1-1.28c.51-.33,1-.88,1.55-.95a6.2,6.2,0,0,1,5.39,1.43,8.24,8.24,0,0,0,1.36.82,5.72,5.72,0,0,1,.41-1.53c.17-.27.83-.59.92-.51,1.06.94,2.82,1.32,3,3s1.32,2.73,2.26,3.93c.29.37.7.83.67,1.22-.12,2,1,3.15,2.69,3.95A4.55,4.55,0,0,1,206.42,209.93Z" transform="translate(-0.06 -0.18)"/><path class="cls-1" d="M332.17,206.68c-.41.85-.8,1.71-1.22,2.55a11.45,11.45,0,0,1-1,1.74c-.29.39-.77.94-1.14.92a2.78,2.78,0,0,1-1.83-.73,13.25,13.25,0,0,1-1.5-2.56,2.75,2.75,0,0,1-.49-1.16c0-3.19,0-6.38.27-9.55a4.23,4.23,0,0,1,1.42-2.85,2.89,2.89,0,0,1,2.73.42c1.89,1.79,2.3,4.18,2.16,6.75a34.1,34.1,0,0,0,.27,4.31Zm-4.27-1.62.45,0a4,4,0,0,0-.76-4.53Z" transform="translate(-0.06 -0.18)"/><path class="cls-1" d="M281.78,214.88a47.92,47.92,0,0,1,2.28-5.64,3.06,3.06,0,0,1,2.62.33c1.31,1.71,2.39,3.63,2.07,6a1.2,1.2,0,0,0,1.49,1.41c2-.28,2.56.7,2.53,2.42a10.13,10.13,0,0,1,0,2.07c-.1.42-.59,1-.93,1.05a36.41,36.41,0,0,1-6.05-.06c-1.3-.17-2.52-.67-2.57-2.63C283.17,218.24,282.32,216.66,281.78,214.88Zm7.29,6.76c.68-.8,1.41-1.4,1.31-1.58a11.4,11.4,0,0,0-1.52-1.95c-.51.52-1.4,1-1.44,1.55S288.27,220.74,289.07,221.65Z" transform="translate(-0.06 -0.18)"/><path class="cls-1" d="M118.84,223l1.47-.84a17.11,17.11,0,0,1-1,7.93c-.1.26-.43.63-.64.62a33,33,0,0,1-5.41-.46c-1.17-.26-1.48-1.44-1.58-2.68s.53-2.74-1-3.89c-.92-.69,0-2.47,1.22-2.63a2.27,2.27,0,0,0,2-1.2c.44-.8,2.77-.38,3.37.49.3.44.58.89.85,1.35S118.57,222.45,118.84,223Z" transform="translate(-0.06 -0.18)"/><path class="cls-1" d="M117.65,124.52l-1.09-2.2-1.51,1.28c0-1.5,0-2.78,0-4,.1-4.23.24-8.46.31-12.68.05-3.15,0-6.3,0-9.33,2.82-.88,3.24-.63,3.19,1.9-.12,6.37-.33,12.74-.45,19.11,0,1.49.21,3,.28,4.47a7.6,7.6,0,0,1-.22,1.46Z" transform="translate(-0.06 -0.18)"/><path class="cls-1" d="M195.84,122.28c-.05-1.09-.17-2.19-.15-3.28.09-5.28.23-10.57.31-15.85q.06-3.69,0-7.38c0-1.15.34-1.63,1.56-1.61s1.49.62,1.48,1.71c0,6.79-.05,13.59-.07,20.38a6.62,6.62,0,0,0,.1,1.6c.2.82,0,1.1-.81,1.54s-1.15,1.51-1.7,2.31c-.14.2-.24.41-.37.62Z" transform="translate(-0.06 -0.18)"/><path class="cls-1" d="M118.47,212.85c-.07,1.57,0,3-1.24,4.45a2.42,2.42,0,0,1-2.82.7,3.2,3.2,0,0,1-2.05-1.92,17.75,17.75,0,0,1-.06-5.53,8.3,8.3,0,0,1,1.68-3.89c.38-.46,2.52-.35,2.73.07a47.3,47.3,0,0,1,2.17,6Z" transform="translate(-0.06 -0.18)"/><path class="cls-1" d="M16.68,159.21c-.07-.49-.16-1-.2-1.46-.19-2.28-.52-4.55-.51-6.83,0-1.77.49-3.54.63-5.32.34-4.48.61-9,.92-13.46,0-.5.14-1,.21-1.49l.62-.11a8.36,8.36,0,0,1,.64,2.15c.06,2.79.07,5.58-.05,8.36q-.31,6.82-.83,13.63a42.83,42.83,0,0,1-.83,4.55Z" transform="translate(-0.06 -0.18)"/><path class="cls-1" d="M39.77,125.33a13.9,13.9,0,0,1,.12,1.51q-.3,11.13-.62,22.27c0,.53-.15,1.06-.18,1.59,0,1-.56,1.4-1.56,1.31s-1.25-.74-1.17-1.57c.32-3.24.68-6.47,1-9.7.44-4,.9-7.94,1.35-11.91.13-1.18.24-2.36.36-3.54Z" transform="translate(-0.06 -0.18)"/><path class="cls-1" d="M113.82,78.7c1.94-.32,3.78-.77,5.65-.9a61.06,61.06,0,0,1,6.74,0c.48,0,.95.59,1.42.91a5.42,5.42,0,0,1-1.4.68,12.45,12.45,0,0,0-2.93.56c1.15,0,2.31-.06,3.45,0,.36,0,.67.51,1,.78-.27.26-.53.73-.82.76-3.4.34-6.8.62-10.2.91-1.26.11-1.87-.35-1.83-1.74C114.93,80.14,114.34,79.59,113.82,78.7Z" transform="translate(-0.06 -0.18)"/><path class="cls-1" d="M238.68,225.79c.12-.88.36-2.19.48-3.51.18-1.94,1.59-1.84,2.93-1.84s1.67,1.1,1.73,2.1a37.65,37.65,0,0,1,0,6.53,3.57,3.57,0,0,1-1.89,2.42c-1.57.63-2.74-.31-3-2.06C238.81,228.39,238.79,227.32,238.68,225.79Z" transform="translate(-0.06 -0.18)"/><path class="cls-1" d="M149.79,119.68l1.15-3.87.26,0a9.63,9.63,0,0,0,.14,1.76,14,14,0,0,0,.77,1.87,2.73,2.73,0,0,1,.34.85c0,1.19-2.07,3.31-3.27,3.33s-3.09-2.07-3.34-3.91a13.93,13.93,0,0,1,0-2.4c.13-3.15.25-6.3.45-9.45a5.27,5.27,0,0,1,.73-1.64,5.11,5.11,0,0,1,.76,1.72c.06,2-.22,4.11,0,6.14a46,46,0,0,0,1.17,5.6Z" transform="translate(-0.06 -0.18)"/><path class="cls-1" d="M157.84,122.55l-1.2-2.61-1,2.35h-.28V104.84l2.79-.17c-.19,1-.36,1.85-.53,2.75a4.85,4.85,0,0,0-.24,1.47c.18,1.28.57,2.53.7,3.81.24,2.43.39,4.87.5,7.31a16.27,16.27,0,0,1-.28,2.54Z" transform="translate(-0.06 -0.18)"/><path class="cls-1" d="M165.21,153.32a19.61,19.61,0,0,1-2.8-1.54,4.07,4.07,0,0,1-1.17-1.74,2.71,2.71,0,0,0-2.4-2c-2.09-.42-4.36-1.08-5.56-3.26-.48-.87-.68-1.82.33-2.39a2,2,0,0,1,2.7.23c1.67,1.49,3.87,2.4,5.5,3.91,1.36,1.25,2.41,2.82,3.92,4C166.11,150.78,165.4,152.43,165.21,153.32Z" transform="translate(-0.06 -0.18)"/><path class="cls-1" d="M228.38,218.25c0,.18-.05.71-.05,1.25,0,1-.06,1.85-1.52,1.85s-1.77-.51-1.87-1.76c-.14-1.73-1.78-1.72-2.88-1.9-1.34-.22-1.53-.69-1.32-1.88.57-3.17.53-3.18,3.9-2.86,3.67.35,3.7.38,3.74,4.15C228.38,217.35,228.38,217.62,228.38,218.25Z" transform="translate(-0.06 -0.18)"/><path class="cls-1" d="M197.63,213.84c.37,0,.75,0,1.12,0,1.82.13,2.7.9,2.36,2.64a24.33,24.33,0,0,1-1.85,5.18c-.34.77-3.51.19-3.72-.73a61,61,0,0,1-1-6.14c0-.23.48-.69.81-.77a15.76,15.76,0,0,1,2.22-.25Z" transform="translate(-0.06 -0.18)"/><path class="cls-1" d="M97.26,232.67c-.63-.47-1.58-.81-1.82-1.42-.43-1.08.06-2,1.25-2.56,2.26-1.07,4.44-2.3,6.67-3.43a2.58,2.58,0,0,1,1.35-.39,5.1,5.1,0,0,1,1.44.68,13.47,13.47,0,0,1-.72,1.22c-.21.29-.61.46-.75.77-.26.59-.27,1.68-.61,1.78-2.35.67-3.77,3.35-6.56,3Z" transform="translate(-0.06 -0.18)"/><path class="cls-1" d="M301.71,58.18l1-.59c.16.36.47.72.46,1.07,0,1.19.51,2.61-1.19,3.28-.27.11-.31.8-.52,1.4,2.08-.1,2.17,1.09,2.09,2.51a20.85,20.85,0,0,0,.08,3.68c.12,1-.29,1.38-1.2,1.42s-1.61,0-1.65-1.17c-.08-2.72-.21-5.45-.36-8.17-.05-1-.25-1.91-.27-2.86a5.33,5.33,0,0,1,.39-1.44Z" transform="translate(-0.06 -0.18)"/><path class="cls-1" d="M196.73,59.13c1.92,0,3.85-.05,5.77,0,.49,0,1,.48,1.43.74-.47.33-.93.93-1.41.95Q196,61,189.41,61c-.48,0-1-.56-1.43-.86a4.84,4.84,0,0,1,1.55-.75c2.39-.19,4.8-.26,7.2-.37Z" transform="translate(-0.06 -0.18)"/><path class="cls-1" d="M54,77.6c-.61.06-1.19.29-1.55.1s-.4-.83-.39-1.27c.12-3,.23-6.09.47-9.12.11-1.35-.33-1.9-1.66-1.83a6.53,6.53,0,0,1-1.22-.17l-.22-.49C50,64.54,50.5,64,51,64c1.16,0,2.71-.14,3.36.52s-.17,2.14-.14,3.26A9.65,9.65,0,0,0,55,70.11C53.14,72,53.53,74.7,54,77.6Z" transform="translate(-0.06 -0.18)"/><path class="cls-1" d="M207.1,211.46c.79,0,1.58,0,2.36,0a1.61,1.61,0,0,0,1-.42,3.76,3.76,0,0,1,4.86-.18,2.36,2.36,0,1,1-2.64,3.91c-1.51-.77-3.08-1.43-4.61-2.17a8.31,8.31,0,0,1-1.11-.78Z" transform="translate(-0.06 -0.18)"/><path class="cls-1" d="M284.23,95.56a56.16,56.16,0,0,1-.08,6.16,2.58,2.58,0,0,1-1.77,1.63c-1.1.19-.92-.95-.89-1.64.06-1.59.22-3.18.35-4.77C282,95.55,282.7,95.1,284.23,95.56Z" transform="translate(-0.06 -0.18)"/><path class="cls-1" d="M390.68,83.57a11.25,11.25,0,0,1,2.87.07c.49.13.79,1,1.18,1.5-.5.32-1.16,1-1.49.91-2.31-.93-4.63-.53-7-.38-.47,0-1-.46-1.46-.71.41-.35.77-.94,1.23-1,1.52-.28,3.08-.38,4.62-.55Z" transform="translate(-0.06 -0.18)"/><path class="cls-1" d="M357.64,56.88l4.57-.32c.44-.89-.62-2.6,1.36-2.29a1.61,1.61,0,0,1,1.1,1c.58,3-.62,4.06-3.6,3.18l-3.48-1Z" transform="translate(-0.06 -0.18)"/><path class="cls-1" d="M147,171a20.5,20.5,0,0,1,0,2.77,2.06,2.06,0,0,1-3,1.8,1.1,1.1,0,0,1-.62-.6C142.6,172.48,144.18,170.65,147,171Z" transform="translate(-0.06 -0.18)"/><path class="cls-1" d="M301,77.87c0-1.54-.07-3,0-4.35.06-.86,1.94-1.44,2.21-.71a6.06,6.06,0,0,1,0,3.48C303.13,76.85,302.07,77.18,301,77.87Z" transform="translate(-0.06 -0.18)"/><path class="cls-1" d="M139.52,153.4a5,5,0,0,1-1.59,5.63c-.22.18-.65.38-.82.28a1.4,1.4,0,0,1-.54-.85c-.46-2,1.15-3.13,2.17-4.47A3.74,3.74,0,0,1,139.52,153.4Z" transform="translate(-0.06 -0.18)"/><path class="cls-1" d="M62.49,125.43a8.1,8.1,0,0,1-1.92-1.54c-.54-.8-.44-1.63.84-1.81a3.08,3.08,0,0,0,1.27-.58c.78-.55,1.25-.31,1.62.47A3.06,3.06,0,0,1,62.49,125.43Z" transform="translate(-0.06 -0.18)"/><path class="cls-1" d="M159.86,80.8H157c.76-1.18-1.78-2.13-.1-3.12a3.52,3.52,0,0,1,3.05,0C161.54,78.62,159.16,79.56,159.86,80.8Z" transform="translate(-0.06 -0.18)"/><path class="cls-1" d="M284,107.68l-1.59,2c-1.05-1.07-.54-2.42-.49-3.61,0-.25.78-.63,1.22-.66,2-.14,1.13,1.38,1.37,2.26Z" transform="translate(-0.06 -0.18)"/><path class="cls-1" d="M19,95.36c-1.92,0-1.59-1.41-1.79-2.35s.12-1.36,1.06-1.4c.6,0,2.39,2,2.16,2.66C20.31,94.74,19.53,95,19,95.36Z" transform="translate(-0.06 -0.18)"/><path class="cls-1" d="M5.24,236.2c-.13-1.17.21-1.81,1.47-1.79,1,0,1.5.39,1.44,1.43s0,1.93-1.52,1.88C5.46,237.68,5.06,237.2,5.24,236.2Z" transform="translate(-0.06 -0.18)"/><path class="cls-1" d="M282.65,239.65c-1.13-1.08-1.41-1.82-.46-2.72.36-.35.48-.95.83-1.32a14.57,14.57,0,0,1,1.55-1.28l.66.58Z" transform="translate(-0.06 -0.18)"/><path class="cls-1" d="M289.55,239.5a30.82,30.82,0,0,1-2.84-2.69c-.32-.38-.18-1.14-.26-1.72.51.13,1.13.1,1.5.4A4,4,0,0,1,289.55,239.5Z" transform="translate(-0.06 -0.18)"/><path class="cls-1" d="M46.86,179a24.2,24.2,0,0,1,.05-3.15c0-.29.73-.49,1.12-.73a22.3,22.3,0,0,1,.49,3.3c0,.31-.78.64-1.2,1Z" transform="translate(-0.06 -0.18)"/><path class="cls-1" d="M40.58,122.47l-1,1.11c-.3-.52-.8-1-.84-1.58a7.56,7.56,0,0,1,.35-2.36.87.87,0,0,1,.61-.56c.2,0,.54.34.58.58C40.39,120.44,40.44,121.25,40.58,122.47Z" transform="translate(-0.06 -0.18)"/><path class="cls-1" d="M186.09,197.52c.09-.91-.09-1.88.3-2.23a2.82,2.82,0,0,1,2.08-.22c.34.06.63.69.83,1.11,0,.08-.51.5-.84.63C187.82,197.05,187.16,197.2,186.09,197.52Z" transform="translate(-0.06 -0.18)"/><path class="cls-1" d="M282.92,110.34l1.43,1.25-1.87,1.77c-.22-.41-.68-.87-.61-1.22A6.83,6.83,0,0,1,282.92,110.34Z" transform="translate(-0.06 -0.18)"/><path class="cls-1" d="M84.14,235.52l1.46,1.41a7.56,7.56,0,0,1-1.77,1c-.25.07-1-.71-1-.83A8.56,8.56,0,0,1,84.14,235.52Z" transform="translate(-0.06 -0.18)"/><path class="cls-1" d="M301.45,83.61c.13-1.48-.46-3,.18-4.47l.73.06-.48,4.46Z" transform="translate(-0.06 -0.18)"/><path class="cls-1" d="M365.87,84.91l-1.14-1.46c.42-.3.86-.86,1.25-.83s.81.62,1.21,1Z" transform="translate(-0.06 -0.18)"/><path class="cls-1" d="M360.78,47.38,358.7,45c1,0,1.83-.17,1.93,0a9.66,9.66,0,0,1,.54,2.23Z" transform="translate(-0.06 -0.18)"/><path class="cls-1" d="M283,94.83l-1.21-.94c.4-.24.81-.68,1.21-.67s.74.49,1.11.76Z" transform="translate(-0.06 -0.18)"/><path class="cls-1" d="M333.08,225.67c-.59.33-1,.71-1.21.64s-.6-.56-.89-.86c.3-.28.62-.8.9-.78S332.52,225.17,333.08,225.67Z" transform="translate(-0.06 -0.18)"/><path class="cls-1" d="M164.31,158.54l.3,2.7-.72.13-.5-2.65Z" transform="translate(-0.06 -0.18)"/><path d="M241.68,235.49a9,9,0,0,1,.56,2c.1,2.51.12,5,.09,7.53,0,.33-.47.66-.72,1-.23-.35-.63-.7-.66-1.06q-.23-3.92-.3-7.84a6.45,6.45,0,0,1,.38-1.6Z" transform="translate(-0.06 -0.18)"/><path d="M326.37,241.82c1.27-1.24,2.14-2,3.58-1s1.68,1.45,1.15,4.83c-.7-.64-1.42-1-1.67-1.58C328.88,242.76,328.58,241.36,326.37,241.82Z" transform="translate(-0.06 -0.18)"/><path d="M330,164.75v4.65l-.38,0V164.8Z" transform="translate(-0.06 -0.18)"/><path d="M327.9,205.06l-.31-4.56a4,4,0,0,1,.76,4.53Z" transform="translate(-0.06 -0.18)"/><path d="M289.07,221.65c-.8-.9-1.67-1.47-1.64-2s.92-1,1.44-1.55a11.4,11.4,0,0,1,1.52,1.95C290.47,220.25,289.75,220.85,289.07,221.65Z" transform="translate(-0.06 -0.18)"/></g></g></svg>